<svg preserveAspectRatio="xMinYMid meet" viewBox="0 0 96 40" xmlns="http://www.w3.org/2000/svg">
    <title>eToro</title>
    <path d="M17.51712,10.22825c-3.714.06116-7.793,2.1919-7.793,6.51459V23.318c0,4.38355,4.07934,6.45349,7.793,6.51429,2.67865,0,5.66186-1.09577,7.123-3.47022.06116-.06085,0-.18255-.06085-.24371-1.27832-.73041-2.00909-1.15662-3.28741-1.82624-.06085,0-.06085,0-.122.06086a4.52685,4.52685,0,0,1-3.65277,1.76538c-1.64374,0-3.77478-1.035-3.77478-2.80036V21.36973H24.03171a.96163.96163,0,0,0,.97381-.97412V16.80369C25.00552,12.42015,21.16989,10.28941,17.51712,10.22825ZM21.109,17.89952c0,.06085,0,.06085-.06086.12164,0,.06085-.06085.06085-.1217.06085H13.74264V16.80369c0-1.76568,2.13074-2.61816,3.77448-2.61816,1.58282,0,3.59192.85248,3.59192,2.61816Zm20.76068-5.84473a5.04085,5.04085,0,0,0-1.76538,3.16571,23.03206,23.03206,0,0,0-4.56635-.73041V29.52775c0,.06085-.06085.06085-.1217.06085H31.64151c-.06085,0-.12171,0-.12171-.06085V14.49009a29.78424,29.78424,0,0,0-4.74859.73041A4.95614,4.95614,0,0,0,25.188,12.05479c-.06079-.06085,0-.18256.122-.24335a28.4848,28.4848,0,0,1,8.21887-1.09613,28.20531,28.20531,0,0,1,8.21917,1.09613C41.80887,11.81144,41.86972,11.93309,41.86972,12.05479ZM10.2109,11.08067a7.52855,7.52855,0,0,0-2.49615,5.723v1.82623a.05951.05951,0,0,1-.06055.06086c-3.40973-.36505-8.82818-2.49616-7.42785-7.671C.77426,8.94993,5.097,4.201,8.14163.3657,8.20212.3657,8.44583,0,8.75,0A.46113.46113,0,0,1,9.23739.5482c-.122.24341-3.10516,6.39264-2.55731,8.46252.54828,2.07,3.28778,1.64374,3.714,1.64374.24335,0,.06085.18286-.18286.42621Zm77.25922,7.54925c-.06085,0-.06085,0-.06085-.06085V16.74284a7.28665,7.28665,0,0,0-2.49616-5.66217c-.24365-.24335-.4262-.42621-.1828-.42621.42621,0,3.16571.42621,3.71393-1.64374.54791-2.009-2.4353-8.21911-2.557-8.46252-.122-.24365.1217-.54785.4262-.54785a.80069.80069,0,0,1,.60877.36535C90.02707,4.201,94.2886,8.94993,94.83682,11.01982,96.23721,16.19462,90.94,18.32573,87.47012,18.62992Zm-9.98456-8.27966c-3.65307.06085-7.91461,2.13074-7.91461,6.39258v6.51428c0,4.32239,4.26154,6.39264,7.91461,6.39264,3.59192-.06116,7.85376-2.07025,7.85376-6.39264V16.80369C85.33932,12.54185,81.07748,10.41111,77.48556,10.35026Zm3.89649,12.66321c0,1.76569-2.37445,2.73981-3.89649,2.73981-1.64367,0-3.95733-.97412-3.95733-2.73981V16.80369c0-1.76568,2.31329-2.55731,3.95733-2.55731,1.522,0,3.89649.85248,3.89649,2.55731ZM69.75345,10.959a6.83981,6.83981,0,0,0-2.43531,3.34858c-1.4.30426-3.10486,1.09552-3.10486,2.49615V29.64976c0,.06085-.06085.06085-.1217.06085H60.3168c-.06085,0-.1217,0-.1217-.06115V16.80369c0-4.14014,4.079-6.27093,7.671-6.39258a7.26875,7.26875,0,0,1,1.82653.12165C69.87515,10.53276,69.93631,10.77647,69.75345,10.959ZM49.906,10.35026c-3.65277.06085-7.91461,2.13074-7.91461,6.39258v6.51428c0,4.32239,4.26184,6.39264,7.91461,6.39264,3.59229-.06116,7.85382-2.07025,7.85382-6.39264V16.80369C57.75985,12.54185,53.49832,10.41111,49.906,10.35026Zm3.95734,12.66321c0,1.76569-2.37445,2.73981-3.89648,2.73981-1.64368,0-3.95734-.97412-3.95734-2.73981V16.80369c0-1.76568,2.3136-2.55731,3.95734-2.55731,1.522,0,3.89648.85248,3.89648,2.55731Z" fill="#fff"/>
</svg>